<svg xmlns="http://www.w3.org/2000/svg" xmlns:xlink="http://www.w3.org/1999/xlink" version="1.1" x="0px" y="0px" viewBox="0 0 91.689 82.72" style="enable-background:new 0 0 91.689 66.176;" xml:space="preserve"><g><path d="M88.022,36.51v7.333h-3.5v5.5H62.857c-0.601-2.485-2.833-4.333-5.503-4.333c-0.309,0-0.609,0.031-0.905,0.079   l-5.818-10.293l24.031-12l1.672-7.775L68.833,0L0,34.372l22.073,14.685l24.976-12.472l5.931,10.492   c-0.807,0.979-1.291,2.233-1.291,3.6c0,3.129,2.537,5.666,5.666,5.666c2.166,0,4.046-1.215,5-3h22.167v5.5h3.5v7.333h3.667V36.51   H88.022z M65.356,6.843c1.565,0,2.834,1.269,2.834,2.834s-1.269,2.833-2.834,2.833c-1.565,0-2.833-1.269-2.833-2.833   S63.791,6.843,65.356,6.843z"/></g><text x="0" y="81.176" fill="#000000" font-size="5px" font-weight="bold" font-family="'Helvetica Neue', Helvetica, Arial-Unicode, Arial, Sans-serif">Created by Gan Khoon Lay</text><text x="0" y="86.176" fill="#000000" font-size="5px" font-weight="bold" font-family="'Helvetica Neue', Helvetica, Arial-Unicode, Arial, Sans-serif">from the Noun Project</text></svg>