<svg xmlns:dc="http://purl.org/dc/elements/1.1/" xmlns:cc="http://creativecommons.org/ns#" xmlns:rdf="http://www.w3.org/1999/02/22-rdf-syntax-ns#" xmlns:svg="http://www.w3.org/2000/svg" xmlns="http://www.w3.org/2000/svg" xmlns:sodipodi="http://sodipodi.sourceforge.net/DTD/sodipodi-0.dtd" xmlns:inkscape="http://www.inkscape.org/namespaces/inkscape" version="1.1" x="0px" y="0px" viewBox="0 0 100 125"><g transform="translate(0,-952.36218)"><path style="text-indent:0;text-transform:none;direction:ltr;block-progression:tb;baseline-shift:baseline;color:#000000;enable-background:accumulate;" d="m 74.281502,963.85503 -20.9516,0.029 a 2.1305483,2.1305483 0 0 0 -1.5174,0.6127 l -39.6854,39.71457 a 2.1305483,2.1305483 0 0 0 0,3.0056 l 33.0323,33.0322 a 2.1305483,2.1305483 0 0 0 3.0056,0 l 39.714505,-39.6854 a 2.1305483,2.1305483 0 0 0 0.6129,-1.51737 l 0,-20.8347 a 2.1305483,2.1305483 0 0 0 0,-0.1167 2.1305483,2.1305483 0 0 0 -0.642,-1.4883 l 0.029,-0.029 -12.109905,-12.0808 a 2.1305483,2.1305483 0 0 0 -1.4881,-0.6419 z m -0.9046,4.2603 10.8551,10.8551 0,19.1716 -37.5844,37.58437 -29.9975,-29.9975 37.5844,-37.58437 19.1424,-0.029 z m -6.1862,7.1492 c -2.5437,0 -5.0753,0.9608 -7.0033,2.8888 -3.8562,3.8562 -3.8562,10.1797 0,14.0359 3.8561,3.8561 10.1796,3.8561 14.0357,0 3.8562,-3.8562 3.8562,-10.1797 0,-14.0359 -1.9281,-1.928 -4.4888,-2.8888 -7.0324,-2.8888 z m 0,4.2312 c 1.4444,0 2.8837,0.5785 3.9976,1.6924 2.228,2.228 2.228,5.7676 0,7.9955 -2.2279,2.2279 -5.7674,2.2279 -7.9954,0 -2.2279,-2.2279 -2.2279,-5.7676 0,-7.9955 1.114,-1.1139 2.5533,-1.6924 3.9978,-1.6924 z m -31.1647,13.1311 a 2.1305483,2.1305483 0 0 0 -1.9259,2.1303 l 0,12.13897 a 2.1305483,2.1305483 0 1 0 4.2603,0 l 0,-10.00877 10.0088,0 a 2.1305483,2.1305483 0 1 0 0,-4.2605 l -12.139,0 a 2.1305483,2.1305483 0 0 0 -0.2042,0 z m 21.36,9.22097 a 2.1305483,2.1305483 0 0 0 -1.8967,2.1595 l 0,10.0088 -10.0089,0 a 2.1305483,2.1305483 0 1 0 0,4.2604 l 12.1391,0 a 2.1305483,2.1305483 0 0 0 2.1301,-2.1302 l 0,-12.139 a 2.1305483,2.1305483 0 0 0 -2.1593,-2.1595 2.1305483,2.1305483 0 0 0 -0.2043,0 z" fill="#000000" fill-opacity="1" stroke="none" marker="none" visibility="visible" display="inline" overflow="visible"/></g><text x="0" y="115" fill="#000000" font-size="5px" font-weight="bold" font-family="'Helvetica Neue', Helvetica, Arial-Unicode, Arial, Sans-serif">Created by artworkbean</text><text x="0" y="120" fill="#000000" font-size="5px" font-weight="bold" font-family="'Helvetica Neue', Helvetica, Arial-Unicode, Arial, Sans-serif">from the Noun Project</text></svg>